<?xml version="1.0" encoding="UTF-8" standalone="no"?>
<!DOCTYPE svg PUBLIC "-//W3C//DTD SVG 1.1//EN"
 "http://www.w3.org/Graphics/SVG/1.1/DTD/svg11.dtd">
<!-- Generated by graphviz version 2.49.0 (20210828.1703)
 -->
<!-- Pages: 1 -->
<svg width="222pt" height="330pt"
 viewBox="0.00 0.00 222.00 330.00" xmlns="http://www.w3.org/2000/svg" xmlns:xlink="http://www.w3.org/1999/xlink">
<g id="graph0" class="graph" transform="scale(1 1) rotate(0) translate(4 326)">
<polygon fill="#ffffff" stroke="transparent" points="-4,4 -4,-326 218,-326 218,4 -4,4"/>
<!-- pi4 -->
<g id="node1" class="node">
<title>pi4</title>
<polygon fill="#ffffff" stroke="black" points="214,-322 0,-322 0,0 214,0 214,-322"/>
<polygon fill="none" stroke="black" points="0,-299 0,-322 214,-322 214,-299 0,-299"/>
<text text-anchor="start" x="97" y="-306.8" font-family="arial" font-size="14.00">pi4</text>
<polygon fill="none" stroke="black" points="0,-276 0,-299 25,-299 25,-276 0,-276"/>
<text text-anchor="start" x="8" y="-283.8" font-family="arial" font-size="14.00">1</text>
<polygon fill="none" stroke="black" points="25,-276 25,-299 214,-299 214,-276 25,-276"/>
<text text-anchor="start" x="70.5" y="-283.8" font-family="arial" font-size="14.00">Power (USB&#45;C)</text>
<polygon fill="none" stroke="black" points="0,-253 0,-276 25,-276 25,-253 0,-253"/>
<text text-anchor="start" x="8" y="-260.8" font-family="arial" font-size="14.00">2</text>
<polygon fill="none" stroke="black" points="25,-253 25,-276 214,-276 214,-253 25,-253"/>
<text text-anchor="start" x="95" y="-260.8" font-family="arial" font-size="14.00">HDMI 0</text>
<polygon fill="none" stroke="black" points="0,-230 0,-253 25,-253 25,-230 0,-230"/>
<text text-anchor="start" x="8" y="-237.8" font-family="arial" font-size="14.00">3</text>
<polygon fill="none" stroke="black" points="25,-230 25,-253 214,-253 214,-230 25,-230"/>
<text text-anchor="start" x="95" y="-237.8" font-family="arial" font-size="14.00">HDMI 1</text>
<polygon fill="none" stroke="black" points="0,-207 0,-230 25,-230 25,-207 0,-207"/>
<text text-anchor="start" x="8" y="-214.8" font-family="arial" font-size="14.00">4</text>
<polygon fill="none" stroke="black" points="25,-207 25,-230 214,-230 214,-207 25,-207"/>
<text text-anchor="start" x="87.5" y="-214.8" font-family="arial" font-size="14.00">Audio Out</text>
<polygon fill="none" stroke="black" points="0,-184 0,-207 25,-207 25,-184 0,-184"/>
<text text-anchor="start" x="8" y="-191.8" font-family="arial" font-size="14.00">5</text>
<polygon fill="none" stroke="black" points="25,-184 25,-207 214,-207 214,-184 25,-184"/>
<text text-anchor="start" x="92.5" y="-191.8" font-family="arial" font-size="14.00">Ethernet</text>
<polygon fill="none" stroke="black" points="0,-161 0,-184 25,-184 25,-161 0,-161"/>
<text text-anchor="start" x="8" y="-168.8" font-family="arial" font-size="14.00">6</text>
<polygon fill="none" stroke="black" points="25,-161 25,-184 214,-184 214,-161 25,-161"/>
<text text-anchor="start" x="92.5" y="-168.8" font-family="arial" font-size="14.00">USB 3.0</text>
<polygon fill="none" stroke="black" points="0,-138 0,-161 25,-161 25,-138 0,-138"/>
<text text-anchor="start" x="8" y="-145.8" font-family="arial" font-size="14.00">7</text>
<polygon fill="none" stroke="black" points="25,-138 25,-161 214,-161 214,-138 25,-138"/>
<text text-anchor="start" x="92.5" y="-145.8" font-family="arial" font-size="14.00">USB 3.0</text>
<polygon fill="none" stroke="black" points="0,-115 0,-138 25,-138 25,-115 0,-115"/>
<text text-anchor="start" x="8" y="-122.8" font-family="arial" font-size="14.00">8</text>
<polygon fill="none" stroke="black" points="25,-115 25,-138 214,-138 214,-115 25,-115"/>
<text text-anchor="start" x="92.5" y="-122.8" font-family="arial" font-size="14.00">USB 2.0</text>
<polygon fill="none" stroke="black" points="0,-92 0,-115 25,-115 25,-92 0,-92"/>
<text text-anchor="start" x="8" y="-99.8" font-family="arial" font-size="14.00">9</text>
<polygon fill="none" stroke="black" points="25,-92 25,-115 214,-115 214,-92 25,-92"/>
<text text-anchor="start" x="92.5" y="-99.8" font-family="arial" font-size="14.00">USB 2.0</text>
<polygon fill="none" stroke="black" points="0,-69 0,-92 25,-92 25,-69 0,-69"/>
<text text-anchor="start" x="4" y="-76.8" font-family="arial" font-size="14.00">10</text>
<polygon fill="none" stroke="black" points="25,-69 25,-92 214,-92 214,-69 25,-69"/>
<text text-anchor="start" x="79.5" y="-76.8" font-family="arial" font-size="14.00">40 pin GPIO</text>
<polygon fill="none" stroke="black" points="0,-46 0,-69 25,-69 25,-46 0,-46"/>
<text text-anchor="start" x="4" y="-53.8" font-family="arial" font-size="14.00">11</text>
<polygon fill="none" stroke="black" points="25,-46 25,-69 214,-69 214,-46 25,-46"/>
<text text-anchor="start" x="60.5" y="-53.8" font-family="arial" font-size="14.00">Micro&#45;SD card slot</text>
<polygon fill="none" stroke="black" points="0,-23 0,-46 25,-46 25,-23 0,-23"/>
<text text-anchor="start" x="4" y="-30.8" font-family="arial" font-size="14.00">12</text>
<polygon fill="none" stroke="black" points="25,-23 25,-46 214,-46 214,-23 25,-23"/>
<text text-anchor="start" x="30.5" y="-30.8" font-family="arial" font-size="14.00">2&#45;lane MIPI DSI display port</text>
<polygon fill="none" stroke="black" points="0,0 0,-23 25,-23 25,0 0,0"/>
<text text-anchor="start" x="4" y="-7.8" font-family="arial" font-size="14.00">13</text>
<polygon fill="none" stroke="black" points="25,0 25,-23 214,-23 214,0 25,0"/>
<text text-anchor="start" x="29" y="-7.8" font-family="arial" font-size="14.00">2&#45;lane MIPI CSI camera port</text>
</g>
</g>
</svg>
