<?xml version="1.0" encoding="UTF-8" standalone="no"?>
<!DOCTYPE svg PUBLIC "-//W3C//DTD SVG 1.1//EN"
 "http://www.w3.org/Graphics/SVG/1.1/DTD/svg11.dtd">
<!-- Generated by graphviz version 2.49.0 (20210828.1703)
 -->
<!-- Pages: 1 -->
<svg width="118pt" height="146pt"
 viewBox="0.00 0.00 118.00 146.00" xmlns="http://www.w3.org/2000/svg" xmlns:xlink="http://www.w3.org/1999/xlink">
<g id="graph0" class="graph" transform="scale(1 1) rotate(0) translate(4 142)">
<polygon fill="#ffffff" stroke="transparent" points="-4,4 -4,-142 114,-142 114,4 -4,4"/>
<!-- i2c_grove -->
<g id="node1" class="node">
<title>i2c_grove</title>
<polygon fill="#ffffff" stroke="black" points="110,-138 0,-138 0,0 110,0 110,-138"/>
<polygon fill="none" stroke="black" points="0,-115 0,-138 110,-138 110,-115 0,-115"/>
<text text-anchor="start" x="23" y="-122.8" font-family="arial" font-size="14.00">i2c_grove</text>
<polygon fill="none" stroke="black" points="0,-92 0,-115 110,-115 110,-92 0,-92"/>
<text text-anchor="start" x="39" y="-99.8" font-family="arial" font-size="14.00">4&#45;pin</text>
<polygon fill="none" stroke="black" points="0,-69 0,-92 17,-92 17,-69 0,-69"/>
<text text-anchor="start" x="4" y="-76.8" font-family="arial" font-size="14.00">1</text>
<polygon fill="none" stroke="black" points="17,-69 17,-92 57,-92 57,-69 17,-69"/>
<text text-anchor="start" x="22.5" y="-76.8" font-family="arial" font-size="14.00">SCL</text>
<polyline fill="none" stroke="black" points="90,-92 57,-92 57,-69 90,-69 "/>
<text text-anchor="start" x="64" y="-76.8" font-family="arial" font-size="14.00">YE</text>
<polyline fill="none" stroke="black" points="90,-69 110,-69 110,-92 90,-92 "/>
<polygon fill="#ffff00" stroke="transparent" points="96,-76.5 96,-84.5 104,-84.5 104,-76.5 96,-76.5"/>
<polygon fill="none" stroke="black" points="96,-76.5 96,-84.5 104,-84.5 104,-76.5 96,-76.5"/>
<polygon fill="none" stroke="black" points="0,-46 0,-69 17,-69 17,-46 0,-46"/>
<text text-anchor="start" x="4" y="-53.8" font-family="arial" font-size="14.00">2</text>
<polygon fill="none" stroke="black" points="17,-46 17,-69 57,-69 57,-46 17,-46"/>
<text text-anchor="start" x="21.5" y="-53.8" font-family="arial" font-size="14.00">SDA</text>
<polyline fill="none" stroke="black" points="90,-69 57,-69 57,-46 90,-46 "/>
<text text-anchor="start" x="61" y="-53.8" font-family="arial" font-size="14.00">WH</text>
<polyline fill="none" stroke="black" points="90,-46 110,-46 110,-69 90,-69 "/>
<polygon fill="#ffffff" stroke="transparent" points="96,-53.5 96,-61.5 104,-61.5 104,-53.5 96,-53.5"/>
<polygon fill="none" stroke="black" points="96,-53.5 96,-61.5 104,-61.5 104,-53.5 96,-53.5"/>
<polygon fill="none" stroke="black" points="0,-23 0,-46 17,-46 17,-23 0,-23"/>
<text text-anchor="start" x="4" y="-30.8" font-family="arial" font-size="14.00">3</text>
<polygon fill="none" stroke="black" points="17,-23 17,-46 57,-46 57,-23 17,-23"/>
<text text-anchor="start" x="21.5" y="-30.8" font-family="arial" font-size="14.00">VCC</text>
<polyline fill="none" stroke="black" points="90,-46 57,-46 57,-23 90,-23 "/>
<text text-anchor="start" x="62.5" y="-30.8" font-family="arial" font-size="14.00">RD</text>
<polyline fill="none" stroke="black" points="90,-23 110,-23 110,-46 90,-46 "/>
<polygon fill="#ff0000" stroke="transparent" points="96,-30.5 96,-38.5 104,-38.5 104,-30.5 96,-30.5"/>
<polygon fill="none" stroke="black" points="96,-30.5 96,-38.5 104,-38.5 104,-30.5 96,-30.5"/>
<polygon fill="none" stroke="black" points="0,0 0,-23 17,-23 17,0 0,0"/>
<text text-anchor="start" x="4" y="-7.8" font-family="arial" font-size="14.00">4</text>
<polygon fill="none" stroke="black" points="17,0 17,-23 57,-23 57,0 17,0"/>
<text text-anchor="start" x="21" y="-7.8" font-family="arial" font-size="14.00">GND</text>
<polyline fill="none" stroke="black" points="90,-23 57,-23 57,0 90,0 "/>
<text text-anchor="start" x="63.5" y="-7.8" font-family="arial" font-size="14.00">BK</text>
<polyline fill="none" stroke="black" points="90,0 110,0 110,-23 90,-23 "/>
<polygon fill="#000000" stroke="transparent" points="96,-7.5 96,-15.5 104,-15.5 104,-7.5 96,-7.5"/>
<polygon fill="none" stroke="black" points="96,-7.5 96,-15.5 104,-15.5 104,-7.5 96,-7.5"/>
</g>
</g>
</svg>
